<?xml version="1.0"?>
<svg xmlns="http://www.w3.org/2000/svg" xmlns:xlink="http://www.w3.org/1999/xlink" xmlns:svgjs="http://svgjs.com/svgjs" version="1.1" width="512" height="512" x="0" y="0" viewBox="0 0 510.509 510.509" style="enable-background:new 0 0 512 512" xml:space="preserve" class=""><g><style>ytp-player-minimized{overflow:hidden;outline:none;}</style><path xmlns="http://www.w3.org/2000/svg" d="m333.925 384.37-78.67-73.639-78.67 73.639-78.588-73.562-70.487 66.773-27.51-29.039 97.832-92.677 78.752 73.716 78.67-73.639 78.67 73.639 78.752-73.716 97.832 92.677-27.508 29.039-70.487-66.773zm78.588-203.287 70.487 66.772 27.509-29.039-97.832-92.677-78.752 73.716-78.67-73.64-78.67 73.64-78.752-73.716-97.833 92.677 27.509 29.039 70.487-66.773 78.588 73.563 78.67-73.639 78.67 73.639z" fill="#dd4040" data-original="#000000" style="" class=""/></g></svg>
