<?xml version="1.0"?>
<svg xmlns="http://www.w3.org/2000/svg" xmlns:xlink="http://www.w3.org/1999/xlink" xmlns:svgjs="http://svgjs.com/svgjs" version="1.1" width="512" height="512" x="0" y="0" viewBox="0 0 512 512" style="enable-background:new 0 0 512 512" xml:space="preserve" class=""><g><style>ytp-player-minimized{overflow:hidden;outline:none;}</style><g xmlns="http://www.w3.org/2000/svg"><path d="m437.158 75.112c-2.926-2.933-7.675-2.937-10.606-.011-2.932 2.926-2.937 7.675-.011 10.606 13.235 13.261 24.724 27.798 34.38 43.32l-64.602 37.298c-13.025-20.311-30.336-37.621-50.646-50.646l37.288-64.584c7.498 4.674 14.791 9.777 21.844 15.321 3.256 2.559 7.971 1.994 10.531-1.262s1.995-7.972-1.262-10.531c-45.461-35.734-100.123-54.623-158.074-54.623-68.379 0-132.666 26.629-181.019 74.981-48.352 48.353-74.981 112.64-74.981 181.019s26.629 132.666 74.981 181.019c48.353 48.352 112.64 74.981 181.019 74.981s132.666-26.629 181.019-74.981c48.352-48.353 74.981-112.64 74.981-181.019 0-68.289-26.579-132.53-74.842-180.888zm-75.553 173.388c-.939-13.349-4.394-26.551-10.354-38.833l39.586-22.855c9.613 18.658 15.464 39.557 16.548 61.688zm-41.341-56.815c.009.009.014.021.024.03 7.878 7.874 12.217 18.346 12.217 29.486 0 11.141-4.34 21.616-12.219 29.496s-18.353 12.218-29.491 12.218-21.612-4.339-29.491-12.218c-15.316-15.316-38.427-20.586-58.882-13.425-3.909 1.369-5.969 5.647-4.6 9.557 1.368 3.909 5.647 5.971 9.557 4.6 15.047-5.269 32.051-1.393 43.318 9.875 10.712 10.712 24.953 16.612 40.098 16.612s29.386-5.899 40.099-16.612c6.669-6.669 11.471-14.708 14.147-23.48 5.852 28.895-2.388 60.103-24.751 82.466-17.727 17.727-41.005 26.589-64.29 26.587-23.268-.002-46.544-8.857-64.263-26.561-.009-.009-.014-.02-.023-.029-.402-.402-.79-.812-1.172-1.226-.054-.056-.107-.113-.161-.17-13.276-14.53-14.663-36.242-3.105-52.36 2.414-3.366 1.642-8.052-1.724-10.465-3.367-2.414-8.053-1.643-10.465 1.724-3.665 5.111-6.364 10.637-8.134 16.354-5.84-28.887 2.403-60.08 24.757-82.435 17.725-17.725 41.008-26.587 64.291-26.587 23.271-.001 46.542 8.854 64.263 26.563zm-56.764-41.292v-45.779c22.131 1.084 43.03 6.936 61.688 16.549l-22.855 39.586c-12.282-5.962-25.484-9.417-38.833-10.356zm-15-60.789c-24.857 1.107-48.313 7.686-69.192 18.562l-37.308-64.62c32.49-17.489 68.75-27.272 106.5-28.419zm0 15.009v45.78c-13.349.939-26.551 4.394-38.833 10.355l-22.855-39.586c18.658-9.613 39.557-15.465 61.688-16.549zm-51.825 63.633c-5.492 3.716-10.714 7.996-15.573 12.856-4.859 4.859-9.14 10.081-12.855 15.573l-39.56-22.84c11.687-18.047 27.102-33.462 45.149-45.149zm-35.927 41.421c-5.961 12.282-9.416 25.484-10.355 38.833h-45.78c1.084-22.131 6.935-43.03 16.548-61.688zm-71.144 38.833h-74.477c1.147-37.75 10.93-74.01 28.419-106.5l64.619 37.308c-10.875 20.879-17.454 44.335-18.561 69.192zm0 15c1.107 24.857 7.687 48.312 18.562 69.191l-64.619 37.309c-17.49-32.49-27.273-68.75-28.419-106.5zm15.01 0h45.78c.939 13.349 4.394 26.551 10.355 38.833l-39.586 22.855c-9.613-18.659-15.465-39.557-16.549-61.688zm63.634 51.824c3.716 5.492 7.995 10.713 12.854 15.572 4.86 4.86 10.082 9.14 15.574 12.856l-22.84 39.56c-18.046-11.687-33.462-27.102-45.149-45.148zm41.42 35.926c12.282 5.961 25.484 9.415 38.832 10.354v45.78c-22.131-1.083-43.029-6.935-61.687-16.548zm38.832 71.144v74.479c-37.749-1.146-74.01-10.93-106.5-28.419l37.309-64.621c20.879 10.875 44.334 17.454 69.191 18.561zm15 0c24.857-1.107 48.312-7.687 69.191-18.562l37.309 64.622c-32.49 17.489-68.751 27.272-106.5 28.419zm0-15.01v-45.78c13.349-.939 26.55-4.394 38.832-10.355l22.855 39.586c-18.658 9.613-39.556 15.465-61.687 16.549zm51.823-63.633c5.492-3.716 10.714-7.996 15.573-12.855s9.139-10.081 12.855-15.572l39.56 22.84c-11.687 18.046-27.102 33.461-45.148 45.148zm35.927-41.419c5.961-12.282 9.416-25.483 10.355-38.832h45.78c-1.084 22.131-6.936 43.029-16.549 61.687zm71.145-38.832h74.478c-1.147 37.75-10.93 74.01-28.419 106.5l-64.621-37.309c10.875-20.879 17.454-44.334 18.562-69.191zm46.053-121.497c17.491 32.498 27.277 68.758 28.424 106.497h-74.478c-1.107-24.857-7.686-48.312-18.561-69.192zm-85.136 31.833-39.56 22.84c-3.716-5.493-7.996-10.715-12.856-15.574-4.859-4.859-10.081-9.139-15.572-12.855l22.84-39.56c18.047 11.687 33.462 27.102 45.148 45.149zm-50.62-65.67c-20.879-10.876-44.335-17.455-69.192-18.562v-74.479c37.746 1.134 73.866 10.826 106.491 28.436zm-247.104-22.578c13.291-13.291 27.868-24.823 43.439-34.512l37.298 64.603c-20.31 13.025-37.621 30.336-50.646 50.647l-64.603-37.299c9.689-15.571 21.222-30.148 34.512-43.439zm-34.512 297.385 64.604-37.3c13.025 20.31 30.336 37.621 50.646 50.646l-37.3 64.604c-15.571-9.688-30.148-21.222-43.439-34.512s-24.822-27.867-34.511-43.438zm375.336 43.439c-13.291 13.291-27.868 24.824-43.439 34.513l-37.3-64.606c20.31-13.025 37.621-30.335 50.646-50.645l64.605 37.3c-9.689 15.57-21.221 30.147-34.512 43.438z" fill="#dd4040" data-original="#000000" style="" class=""/><path d="m290.796 251.907c8.201 0 15.912-3.194 21.712-8.993 11.971-11.972 11.971-31.451 0-43.423-5.8-5.8-13.511-8.994-21.712-8.994-8.202 0-15.913 3.194-21.711 8.994-5.8 5.799-8.994 13.51-8.994 21.711s3.194 15.912 8.993 21.711c5.8 5.8 13.51 8.994 21.712 8.994zm-11.105-41.81c2.966-2.966 6.909-4.6 11.104-4.6 4.194 0 8.139 1.634 11.104 4.6 6.123 6.123 6.123 16.087.001 22.21-2.967 2.966-6.911 4.6-11.105 4.6-4.195 0-8.139-1.633-11.105-4.6-2.966-2.966-4.6-6.91-4.6-11.105s1.635-8.139 4.601-11.105z" fill="#dd4040" data-original="#000000" style="" class=""/><path d="m199.491 312.507c5.986 5.986 13.849 8.979 21.711 8.979s15.726-2.993 21.711-8.979c11.972-11.972 11.972-31.451 0-43.423s-31.451-11.972-43.423 0-11.971 31.451.001 43.423zm10.606-32.817c3.062-3.062 7.083-4.592 11.105-4.592s8.043 1.531 11.105 4.592c6.123 6.124 6.123 16.086 0 22.21-6.123 6.123-16.087 6.123-22.21 0s-6.123-16.086 0-22.21z" fill="#dd4040" data-original="#000000" style="" class=""/><path d="m179.43 66.317c2.974 11.097 13.047 18.434 24.026 18.434 2.124 0 4.283-.275 6.43-.85 6.416-1.719 11.779-5.834 15.1-11.587 3.321-5.752 4.203-12.454 2.484-18.87-3.549-13.245-17.216-21.135-30.457-17.584-13.243 3.55-21.132 17.212-17.583 30.457zm21.466-15.968c.853-.229 1.708-.337 2.552-.337 4.356 0 8.354 2.912 9.534 7.314 1.408 5.256-1.722 10.677-6.977 12.085-5.256 1.41-10.678-1.722-12.085-6.977-1.409-5.255 1.721-10.677 6.976-12.085z" fill="#dd4040" data-original="#000000" style="" class=""/><path d="m332.569 445.681c-1.719-6.416-5.834-11.779-11.586-15.1-5.751-3.32-12.45-4.203-18.87-2.484-6.416 1.719-11.778 5.834-15.1 11.586-3.321 5.753-4.203 12.455-2.483 18.87 1.719 6.416 5.834 11.778 11.586 15.1 3.832 2.212 8.084 3.343 12.394 3.343 2.16 0 4.335-.284 6.477-.858 13.243-3.55 21.131-17.213 17.582-30.457zm-21.465 15.967c-5.252 1.412-10.677-1.722-12.085-6.978-.683-2.545-.332-5.205.985-7.487 1.318-2.282 3.446-3.915 5.992-4.597.85-.228 1.712-.341 2.569-.341 1.71 0 3.397.449 4.918 1.327 2.282 1.317 3.915 3.445 4.598 5.991 1.408 5.256-1.723 10.677-6.977 12.085z" fill="#dd4040" data-original="#000000" style="" class=""/><path d="m112.431 137.286c6.368 0 12.736-2.424 17.584-7.272 9.696-9.696 9.696-25.472 0-35.168-9.695-9.696-25.472-9.697-35.167 0-9.696 9.696-9.696 25.472 0 35.168 4.847 4.848 11.215 7.272 17.583 7.272zm-6.977-31.833c1.924-1.923 4.451-2.885 6.978-2.885 2.526 0 5.053.962 6.977 2.885 3.847 3.848 3.847 10.107 0 13.955-3.848 3.847-10.107 3.847-13.955 0-3.847-3.848-3.847-10.108 0-13.955z" fill="#dd4040" data-original="#000000" style="" class=""/><path d="m417.152 381.983c-9.695-9.695-25.473-9.695-35.168 0s-9.695 25.472 0 35.168c4.848 4.848 11.216 7.271 17.584 7.271s12.736-2.424 17.585-7.271c9.696-9.696 9.696-25.472-.001-35.168zm-10.605 24.561c-3.849 3.847-10.108 3.848-13.955 0-3.848-3.848-3.848-10.108 0-13.955 1.923-1.923 4.45-2.885 6.977-2.885s5.055.962 6.978 2.885c3.847 3.848 3.847 10.108 0 13.955z" fill="#dd4040" data-original="#000000" style="" class=""/><path d="m35.861 197.013c-1.719 6.416-.836 13.117 2.484 18.87 3.321 5.752 8.684 9.867 15.1 11.586 2.143.575 4.316.858 6.477.858 4.309 0 8.562-1.13 12.393-3.342 5.752-3.321 9.867-8.684 11.586-15.1 1.72-6.416.837-13.118-2.484-18.87s-8.684-9.867-15.1-11.586c-6.416-1.718-13.118-.836-18.87 2.484-5.752 3.321-9.866 8.684-11.586 15.1zm14.49 3.882c.682-2.546 2.315-4.674 4.597-5.991 1.521-.878 3.208-1.327 4.918-1.327.857 0 1.72.113 2.57.341 2.546.682 4.674 2.315 5.992 4.597 1.318 2.283 1.668 4.941.985 7.488-.682 2.546-2.315 4.674-4.597 5.992s-4.941 1.668-7.488.985c-2.546-.682-4.674-2.314-5.991-4.597-1.318-2.283-1.669-4.942-.986-7.488z" fill="#dd4040" data-original="#000000" style="" class=""/><path d="m476.139 314.984c3.549-13.245-4.34-26.907-17.584-30.456-6.414-1.721-13.117-.838-18.87 2.484-5.752 3.321-9.867 8.684-11.586 15.1-3.549 13.245 4.339 26.908 17.583 30.457 2.148.575 4.305.85 6.43.85 10.978-.001 21.053-7.338 24.027-18.435zm-33.552-8.99c.683-2.545 2.315-4.673 4.598-5.991 1.521-.878 3.208-1.326 4.917-1.326.857 0 1.72.113 2.57.34 5.256 1.408 8.387 6.83 6.979 12.084-1.409 5.255-6.835 8.387-12.086 6.978-5.256-1.408-8.386-6.829-6.978-12.085z" fill="#dd4040" data-original="#000000" style="" class=""/><path d="m47.448 330.084c3.832 2.212 8.084 3.342 12.394 3.342 2.16 0 4.334-.284 6.476-.858 6.417-1.719 11.779-5.834 15.1-11.586 3.321-5.753 4.204-12.455 2.484-18.87-1.719-6.416-5.834-11.779-11.586-15.1s-12.453-4.203-18.87-2.484c-6.416 1.719-11.779 5.834-15.1 11.586s-4.203 12.454-2.484 18.87 5.833 11.779 11.586 15.1zm9.88-31.066c.851-.228 1.713-.341 2.57-.341 1.709 0 3.397.449 4.917 1.326 2.283 1.318 3.915 3.446 4.597 5.992.683 2.546.333 5.205-.985 7.488-1.318 2.282-3.446 3.915-5.992 4.597-2.547.682-5.206.332-7.488-.986s-3.915-3.445-4.597-5.991c-1.408-5.256 1.722-10.678 6.978-12.085z" fill="#dd4040" data-original="#000000" style="" class=""/><path d="m428.099 209.885c1.719 6.416 5.834 11.779 11.586 15.1 3.832 2.212 8.084 3.342 12.393 3.342 2.16 0 4.335-.284 6.478-.858 6.416-1.719 11.778-5.834 15.1-11.586s4.204-12.454 2.484-18.871c-3.55-13.243-17.211-21.133-30.457-17.583-6.416 1.719-11.778 5.834-15.099 11.586-3.322 5.753-4.205 12.454-2.485 18.87zm15.474-11.37c1.317-2.283 3.445-3.915 5.991-4.597 5.254-1.41 10.677 1.723 12.086 6.977.682 2.546.332 5.205-.986 7.487-1.318 2.283-3.446 3.916-5.992 4.598-2.547.68-5.204.332-7.487-.986-2.282-1.318-3.915-3.446-4.598-5.992-.682-2.545-.332-5.204.986-7.487z" fill="#dd4040" data-original="#000000" style="" class=""/><path d="m130.015 417.151c4.697-4.697 7.284-10.942 7.284-17.584 0-6.643-2.587-12.888-7.284-17.584-9.695-9.697-25.472-9.697-35.167 0-4.697 4.697-7.284 10.942-7.284 17.584s2.586 12.887 7.284 17.584c4.848 4.848 11.216 7.272 17.583 7.272 6.368 0 12.736-2.423 17.584-7.272zm-27.451-17.584c0-2.636 1.026-5.114 2.89-6.977 1.924-1.923 4.45-2.885 6.977-2.885s5.054.962 6.978 2.886c1.864 1.863 2.89 4.341 2.89 6.977s-1.026 5.114-2.89 6.978c-3.848 3.847-10.107 3.847-13.955 0-1.864-1.865-2.89-4.343-2.89-6.979z" fill="#dd4040" data-original="#000000" style="" class=""/><path d="m381.984 94.846c-9.695 9.696-9.695 25.472 0 35.168 4.848 4.848 11.216 7.271 17.584 7.271s12.736-2.424 17.585-7.271c9.695-9.696 9.695-25.472-.001-35.168-9.695-9.696-25.472-9.695-35.168 0zm24.562 10.607c3.848 3.847 3.848 10.108.001 13.955-3.849 3.847-10.108 3.848-13.955 0-3.848-3.847-3.848-10.108 0-13.955 3.847-3.848 10.108-3.847 13.954 0z" fill="#dd4040" data-original="#000000" style="" class=""/><path d="m197.014 476.138c2.148.575 4.305.85 6.43.85 10.979 0 21.053-7.337 24.026-18.435 1.719-6.416.836-13.118-2.484-18.87-3.321-5.753-8.684-9.868-15.1-11.587-13.248-3.546-26.907 4.34-30.456 17.584-3.549 13.245 4.34 26.908 17.584 30.458zm-3.096-26.575c1.409-5.256 6.834-8.385 12.086-6.978 5.255 1.408 8.385 6.83 6.977 12.085-1.409 5.255-6.831 8.383-12.085 6.978-5.255-1.408-8.385-6.829-6.978-12.085z" fill="#dd4040" data-original="#000000" style="" class=""/><path d="m287.014 72.314c3.321 5.752 8.684 9.867 15.1 11.586 2.143.574 4.316.858 6.477.858 4.309 0 8.562-1.13 12.394-3.342 5.752-3.321 9.867-8.684 11.586-15.1 3.549-13.244-4.339-26.907-17.583-30.457-6.417-1.719-13.117-.837-18.87 2.485-5.752 3.321-9.867 8.684-11.586 15.1-1.721 6.416-.84 13.118 2.482 18.87zm12.005-14.987c1.181-4.404 5.178-7.315 9.533-7.315.844 0 1.7.109 2.552.337 5.255 1.409 8.386 6.83 6.978 12.086-.683 2.546-2.315 4.674-4.598 5.991s-4.942 1.668-7.487.986c-2.546-.682-4.674-2.315-5.992-4.597-1.318-2.283-1.669-4.942-.986-7.488z" fill="#dd4040" data-original="#000000" style="" class=""/></g></g></svg>
